<svg version="1" xmlns="http://www.w3.org/2000/svg" width="744" height="744" viewBox="0 0 558.000000 558.000000"><path d="M220 2.3C214.9 3.9 7 211.3 3.5 218.4c-4.4 8.9-3 19.5 3.6 27 7.5 8.5 18.5 11.1 28.6 6.6 4-1.7 23-20.3 108.6-105.8 57.1-57 104.8-105.3 106-107.2 5.8-9.3 4.6-22.6-2.9-30.4-6.2-6.5-17.7-9.2-27.4-6.3zM321.5 1.6c-1.1.3-3.8 1.7-5.9 3.2-9.1 6.3-13.4 16.2-11.1 25.8.6 2.8 2.1 6.7 3.3 8.5C311.1 44.3 518.4 251 520.3 251c.9 0 1.7.4 1.7.8 0 1.6 8.4 2.8 13.8 2 6-.9 16.2-6.9 16.2-9.6 0-.6.4-1.2 1-1.4 3.9-1.3 5.1-17.2 1.8-24.1C552.3 213.6 345.4 6.2 340 3.5c-3.4-1.8-14.4-2.9-18.5-1.9zM25 303.7c0 .4-1.5.8-3.4.9-7.4.1-17 8.1-19.4 16.2-2.1 7.1-1.1 16.5 2.2 21.1 2.8 3.8 207.6 208.5 210.9 210.8 9.7 6.8 22.9 5.7 31.3-2.6 5.2-5.1 6.9-9.6 6.9-18.1 0-6.4-.4-8.2-2.7-12-3.4-5.5-209-211.1-213.5-213.4-1.7-.9-4.9-1.9-7-2.2-2.1-.3-4.1-.8-4.5-1.1-.5-.2-.8-.1-.8.4zM333.8 403.5c-.2.2-2.9.5-6 .8-14.6 1.2-24.4 12.3-23.3 26.6.7 9.6 5.2 16.1 13.9 20.4l5.4 2.7h103.9c117.2 0 110.9.4 118.7-7.4 13.1-13 7.6-36.2-9.8-41.1-4.3-1.2-16.7-2.1-20.1-1.5-.5.1-1.4.2-1.9.1-1.1-.2-36.7-.2-38.1 0-.5.1-1.4.1-1.9 0-1.3-.3-12.9-.3-14.1-.1-.5.1-1.4.2-1.9.1-1.1-.2-36.8-.2-38.1 0-.5.1-1.4.1-1.9 0-1-.2-44.7-.2-46.1 0-.5.1-1.4.1-1.9 0-2.2-.4-29.8-.2-30.3.2-.2.3-1.7.1-3.3-.3-1.6-.4-3-.7-3.2-.5z"/></svg>